<svg width="176" height="184" viewBox="0 0 176 184" fill="none" xmlns="http://www.w3.org/2000/svg">
<g filter="url(#filter0_di_9730_310)">
<path d="M158.423 15.8418C153.992 11.1714 146.833 11.1714 142.401 15.8418L89.7353 71.2297C88.1574 72.8892 85.5111 72.8878 83.9349 71.2268L31.2662 15.7221C26.8345 11.0517 19.6755 11.0517 15.2437 15.7221C10.812 20.3924 10.812 27.9369 15.2437 32.6073L68.1984 88.4134C69.663 89.9568 69.663 92.3766 68.1984 93.92L15.2437 149.726C10.812 154.396 10.812 161.941 15.2437 166.611C19.6755 171.282 26.8345 171.282 31.2662 166.611L83.932 111.11C85.5093 109.448 88.1578 109.448 89.7351 111.11L142.401 166.611C146.833 171.282 153.992 171.282 158.423 166.611C162.855 161.941 162.855 154.396 158.423 149.726L105.469 93.92C104.004 92.3766 104.004 89.9568 105.469 88.4134L158.423 32.6073C162.741 28.0567 162.741 20.3924 158.423 15.8418Z" fill="#60C2AA"/>
<path d="M14.9902 15.481C19.56 10.6654 26.9508 10.6653 31.5205 15.481L84.1885 70.9859C85.6267 72.5015 88.0416 72.5028 89.4814 70.9888L142.147 15.6011C146.717 10.7854 154.107 10.7855 158.677 15.6011C163.123 20.2868 163.123 28.1625 158.677 32.8482L105.723 88.6538C104.386 90.0622 104.386 92.2709 105.723 93.6792L158.677 149.485C163.237 154.29 163.237 162.047 158.677 166.852C154.107 171.668 146.717 171.668 142.147 166.852L89.4814 111.351C88.0422 109.834 85.6248 109.834 84.1855 111.351L31.5205 166.852C26.9508 171.668 19.56 171.668 14.9902 166.852C10.4303 162.047 10.4303 154.29 14.9902 149.485L67.9443 93.6792C69.2807 92.2709 69.2807 90.0622 67.9443 88.6538L14.9902 32.8482C10.4303 28.0427 10.4303 20.2864 14.9902 15.481Z" stroke="white" stroke-width="0.7"/>
</g>
<defs>
<filter id="filter0_di_9730_310" x="0.219971" y="0.519272" width="175.227" height="183.295" filterUnits="userSpaceOnUse" color-interpolation-filters="sRGB">
<feFlood flood-opacity="0" result="BackgroundImageFix"/>
<feColorMatrix in="SourceAlpha" type="matrix" values="0 0 0 0 0 0 0 0 0 0 0 0 0 0 0 0 0 0 127 0" result="hardAlpha"/>
<feOffset dx="1" dy="1"/>
<feGaussianBlur stdDeviation="6"/>
<feColorMatrix type="matrix" values="0 0 0 0 0.420718 0 0 0 0 0.290978 0 0 0 0 0.338156 0 0 0 0.2 0"/>
<feBlend mode="normal" in2="BackgroundImageFix" result="effect1_dropShadow_9730_310"/>
<feBlend mode="normal" in="SourceGraphic" in2="effect1_dropShadow_9730_310" result="shape"/>
<feColorMatrix in="SourceAlpha" type="matrix" values="0 0 0 0 0 0 0 0 0 0 0 0 0 0 0 0 0 0 127 0" result="hardAlpha"/>
<feOffset dx="2" dy="2"/>
<feGaussianBlur stdDeviation="5"/>
<feComposite in2="hardAlpha" operator="arithmetic" k2="-1" k3="1"/>
<feColorMatrix type="matrix" values="0 0 0 0 0.311889 0 0 0 0 0.612384 0 0 0 0 0.54168 0 0 0 0.6 0"/>
<feBlend mode="normal" in2="shape" result="effect2_innerShadow_9730_310"/>
</filter>
</defs>
</svg>
